<svg width="129" height="24" viewBox="0 0 129 24" fill="none" xmlns="http://www.w3.org/2000/svg">
<path fill-rule="evenodd" clip-rule="evenodd" d="M5.6 0C2.5072 0 0 2.50721 0 5.6V18.4C0 21.4928 2.5072 24 5.6 24H18.4C21.4928 24 24 21.4928 24 18.4V5.6C24 2.5072 21.4928 0 18.4 0H5.6ZM12.8447 17.312L17.5827 6.24682L19.0935 6.89373L14.3555 17.959L12.8447 17.312ZM10.9545 16.5376L3.95837 13.0168V11.1888L10.9545 7.66806V9.9884L6.54245 12.1035L10.9545 14.2172V16.5376Z" fill="#3E1C96"/>
<path d="M40.2694 8.49701C37.8166 8.49701 35.8174 10.0762 35.8174 11.9914C35.8174 13.9234 37.8166 15.4858 40.2694 15.4858C41.7814 15.4858 43.1926 14.881 44.0158 13.873L44.4358 13.3354L46.1662 14.7466L45.7294 15.2674C44.4862 16.7962 42.4534 17.7202 40.2694 17.7202C38.5222 17.7202 36.8758 17.149 35.6158 16.1074C34.3222 15.0322 33.5999 13.5706 33.5999 11.9914C33.5999 10.429 34.3222 8.9674 35.6158 7.89221C36.8758 6.85062 38.5222 6.27942 40.2694 6.27942C42.4534 6.27942 44.4862 7.18661 45.7294 8.71541L46.1662 9.253L44.4358 10.6474L44.0158 10.1266C43.1926 9.1186 41.7814 8.49701 40.2694 8.49701Z" fill="#101828"/>
<path d="M58.146 7.89221C59.4564 8.9674 60.1788 10.429 60.1788 11.9914C60.1788 13.5706 59.4564 15.0322 58.146 16.1074C56.9028 17.149 55.2564 17.7202 53.5092 17.7202C51.762 17.7202 50.1156 17.149 48.8724 16.1074C47.562 15.0322 46.8396 13.5706 46.8396 11.9914C46.8396 10.429 47.562 8.9674 48.8724 7.89221C50.1156 6.85062 51.762 6.27942 53.5092 6.27942C55.2564 6.27942 56.9028 6.85062 58.146 7.89221ZM53.5092 15.4858C55.962 15.4858 57.9612 13.9234 57.9612 11.9914C57.9612 10.0762 55.962 8.49701 53.5092 8.49701C51.0564 8.49701 49.0572 10.0762 49.0572 11.9914C49.0572 13.9234 51.0564 15.4858 53.5092 15.4858Z" fill="#101828"/>
<path d="M71.6495 7.87541C72.9767 8.9674 73.6991 10.429 73.6991 11.9914C73.6991 13.5706 72.9767 15.0322 71.6495 16.1074C70.3896 17.149 68.7264 17.7202 66.9624 17.7202H61.6872V6.27942H66.9624C68.7264 6.27942 70.3896 6.85062 71.6495 7.87541ZM66.9624 15.4858C69.4488 15.4858 71.4815 13.9234 71.4815 11.9914C71.4815 10.0762 69.4488 8.49701 66.9624 8.49701H63.9216V15.4858H66.9624Z" fill="#101828"/>
<path d="M77.2762 6.27942V15.4858H85.8946V17.7202H75.0418V6.27942H77.2762Z" fill="#101828"/>
<path d="M87.2316 17.7202V6.27942H98.2355V8.51381H89.4492V10.8826H97.6643V13.117H89.4492V15.4858H98.2355V17.7202H87.2316Z" fill="#101828"/>
<path d="M106.742 6.27942H108.825L115.965 17.7202H113.345L111.48 14.713H104.088L102.223 17.7202H99.5854L106.742 6.27942ZM105.482 12.4954H110.085L107.784 8.8162L105.482 12.4954Z" fill="#101828"/>
<path d="M126.695 14.377V6.27942H128.913V17.7202H126.611L119.538 9.6898V17.7202H117.304V6.27942H119.622L126.695 14.377Z" fill="#101828"/>
</svg>
